<svg width="187" height="145" viewBox="0 0 187 145" fill="none" xmlns="http://www.w3.org/2000/svg">
<path d="M183.341 69.5034H181.653C180.069 69.5034 178.786 70.7871 178.786 72.3705V72.428C178.786 74.0114 180.069 75.2951 181.653 75.2951H183.341C184.925 75.2951 186.208 74.0114 186.208 72.428V72.3705C186.208 70.7871 184.925 69.5034 183.341 69.5034Z" fill="#CFEAFF"/>
<path d="M12.653 57.9512H11.8092C10.2258 57.9512 8.94214 59.2348 8.94214 60.8183V60.8757C8.94214 62.4592 10.2258 63.7428 11.8092 63.7428H12.653C14.2365 63.7428 15.5202 62.4592 15.5202 60.8757V60.8183C15.5202 59.2348 14.2365 57.9512 12.653 57.9512Z" fill="#CFEAFF"/>
<path d="M9.36063 81.1492H2.86711C1.28365 81.1492 0 82.4328 0 84.0163V84.0737C0 85.6572 1.28365 86.9408 2.86711 86.9408H9.36063C10.9441 86.9408 12.2277 85.6572 12.2277 84.0737V84.0163C12.2277 82.4328 10.9441 81.1492 9.36063 81.1492Z" fill="#CFEAFF"/>
<path d="M145.181 46.3311H163.249C164.792 46.3311 166.043 47.5816 166.043 49.125V49.3278C166.043 50.8712 164.792 52.1217 163.249 52.1217H153.707C152.163 52.1217 150.913 53.3722 150.913 54.9156V55.1195C150.913 56.6629 152.163 57.9134 153.707 57.9134H173.042C174.585 57.9134 175.836 59.1638 175.836 60.7072V60.9111C175.836 62.4545 174.585 63.705 173.042 63.705H159.699C158.156 63.705 156.905 64.9555 156.905 66.4989V66.7017C156.905 68.2451 158.156 69.4956 159.699 69.4956H173.114C174.658 69.4956 175.908 70.7461 175.908 72.2895V72.4934C175.908 74.0368 174.658 75.2872 173.114 75.2872H163.191C161.648 75.2872 160.397 76.5377 160.397 78.0811V78.285C160.397 79.8284 161.648 81.0789 163.191 81.0789H177.208C178.751 81.0789 180.002 82.3294 180.002 83.8728V84.0756C180.002 85.619 178.751 86.8695 177.208 86.8695H154.317C152.774 86.8695 151.523 88.12 151.523 89.6633V89.8673C151.523 91.4107 152.774 92.6611 154.317 92.6611H162.589C164.132 92.6611 165.383 93.9116 165.383 95.455V95.6589C165.383 97.2023 164.132 98.4528 162.589 98.4528H146.722C145.179 98.4528 143.928 99.7033 143.928 101.247V101.449C143.928 102.993 145.179 104.243 146.722 104.243H153.688C155.231 104.243 156.482 105.494 156.482 107.037V107.241C156.482 108.785 155.231 110.035 153.688 110.035H138.842C137.298 110.035 136.048 111.286 136.048 112.829V113.033C136.048 114.576 137.298 115.827 138.842 115.827H157.778C159.322 115.827 160.572 117.077 160.572 118.621V118.823C160.572 120.367 159.322 121.617 157.778 121.617H115.802C114.259 121.617 113.008 122.868 113.008 124.411V124.615C113.008 126.158 114.259 127.409 115.802 127.409H139.923C141.467 127.409 142.717 128.659 142.717 130.203V130.407C142.717 131.95 141.467 133.201 139.923 133.201H89.9882C88.4448 133.201 87.1943 134.451 87.1943 135.994V136.197C87.1943 137.741 88.4448 138.991 89.9882 138.991H101.355C102.899 138.991 104.149 140.242 104.149 141.785V141.989C104.149 143.532 102.899 144.783 101.355 144.783H77.6681C76.1247 144.783 74.8742 143.532 74.8742 141.989V141.785C74.8742 140.242 76.1247 138.991 77.6681 138.991H77.7244C79.2678 138.991 80.5183 137.741 80.5183 136.197V135.994C80.5183 134.451 79.2678 133.201 77.7244 133.201H58.316C56.7726 133.201 55.5221 131.95 55.5221 130.407V130.203C55.5221 128.659 56.7726 127.409 58.316 127.409H64.5481C66.0915 127.409 67.342 126.158 67.342 124.615V124.411C67.342 122.868 66.0915 121.617 64.5481 121.617H42.8178C41.2744 121.617 40.0239 120.367 40.0239 118.823V118.621C40.0239 117.077 41.2744 115.827 42.8178 115.827H58.957C60.5004 115.827 61.7509 114.576 61.7509 113.033V112.829C61.7509 111.286 60.5004 110.035 58.957 110.035H37.9702C36.4268 110.035 35.1763 108.785 35.1763 107.241V107.037C35.1763 105.494 36.4268 104.243 37.9702 104.243H44.0334C45.5768 104.243 46.8272 102.993 46.8272 101.449V101.247C46.8272 99.7033 45.5768 98.4528 44.0334 98.4528H15.0164C13.473 98.4528 12.2225 97.2023 12.2225 95.6589V95.455C12.2225 93.9116 13.473 92.6611 15.0164 92.6611H28.0294C29.5728 92.6611 30.8232 91.4107 30.8232 89.8673V89.6633C30.8232 88.12 29.5728 86.8695 28.0294 86.8695H18.4468C16.9034 86.8695 15.6529 85.619 15.6529 84.0756V83.8728C15.6529 82.3294 16.9034 81.0789 18.4468 81.0789H31.3888C32.9322 81.0789 34.1827 79.8284 34.1827 78.285V78.0811C34.1827 76.5377 32.9322 75.2872 31.3888 75.2872H8.90253C7.35913 75.2872 6.10864 74.0368 6.10864 72.4934V72.2895C6.10864 70.7461 7.35913 69.4956 8.90253 69.4956H23.8002C25.3436 69.4956 26.5941 68.2451 26.5941 66.7017V66.4989C26.5941 64.9555 25.3436 63.705 23.8002 63.705H20.6537C19.1103 63.705 17.8598 62.4545 17.8598 60.9111V60.7072C17.8598 59.1638 19.1103 57.9134 20.6537 57.9134H36.3389C37.8823 57.9134 39.1328 56.6629 39.1328 55.1195V54.9156C39.1328 53.3722 37.8823 52.1217 36.3389 52.1217H26.2944C24.7511 52.1217 23.5006 50.8712 23.5006 49.3278V49.125C23.5006 47.5816 24.7511 46.3311 26.2944 46.3311H43.8677C45.4111 46.3311 46.6616 45.0807 46.6616 43.5373V43.3333C46.6616 41.79 45.4111 40.5395 43.8677 40.5395H36.0054C34.4621 40.5395 33.2116 39.289 33.2116 37.7456V37.5417C33.2116 35.9983 34.4621 34.7478 36.0054 34.7478H46.8633C48.4067 34.7478 49.6572 33.4973 49.6572 31.9539V31.7511C49.6572 30.2077 48.4067 28.9572 46.8633 28.9572H43.9353C42.3919 28.9572 41.1415 27.7068 41.1415 26.1634V25.9594C41.1415 24.4161 42.3919 23.1656 43.9353 23.1656H60.4181C61.9615 23.1656 63.212 21.9151 63.212 20.3717V20.1678C63.212 18.6244 61.9615 17.3739 60.4181 17.3739H56.4751C54.9317 17.3739 53.6813 16.1234 53.6813 14.58V14.3772C53.6813 12.8338 54.9317 11.5833 56.4751 11.5833H95.2673C96.8107 11.5833 98.0612 10.3329 98.0612 8.78946V8.58556C98.0612 7.04216 96.8107 5.79167 95.2673 5.79167H89.1726C87.6292 5.79167 86.3787 4.54119 86.3787 2.99779V2.79388C86.3787 1.25049 87.6292 0 89.1726 0H106.979C108.522 0 109.773 1.25049 109.773 2.79388V2.99779C109.773 4.54119 108.522 5.79167 106.979 5.79167H106.724C105.181 5.79167 103.931 7.04216 103.931 8.58556V8.78946C103.931 10.3329 105.181 11.5833 106.724 11.5833H116.167C117.711 11.5833 118.961 12.8338 118.961 14.3772V14.58C118.961 16.1234 117.711 17.3739 116.167 17.3739H113.715C112.171 17.3739 110.921 18.6244 110.921 20.1678V20.3717C110.921 21.9151 112.171 23.1656 113.715 23.1656H142.042C143.586 23.1656 144.836 24.4161 144.836 25.9594V26.1634C144.836 27.7068 143.586 28.9572 142.042 28.9572H130.367C128.823 28.9572 127.573 30.2077 127.573 31.7511V31.9539C127.573 33.4973 128.823 34.7478 130.367 34.7478H157.601C159.145 34.7478 160.395 35.9983 160.395 37.5417V37.7456C160.395 39.289 159.145 40.5395 157.601 40.5395H145.18C143.636 40.5395 142.386 41.79 142.386 43.3333V43.5373C142.386 45.0807 143.636 46.3311 145.18 46.3311H145.181Z" fill="#CFEAFF"/>
<path d="M33.6241 115.823H31.9106C30.3271 115.823 29.0435 117.107 29.0435 118.69V118.748C29.0435 120.331 30.3271 121.615 31.9106 121.615H33.6241C35.2075 121.615 36.4912 120.331 36.4912 118.748V118.69C36.4912 117.107 35.2075 115.823 33.6241 115.823Z" fill="#CFEAFF"/>
<path d="M125.205 11.6033H123.849C122.265 11.6033 120.981 12.8869 120.981 14.4704V14.5278C120.981 16.1113 122.265 17.3949 123.849 17.3949H125.205C126.788 17.3949 128.072 16.1113 128.072 14.5278V14.4704C128.072 12.8869 126.788 11.6033 125.205 11.6033Z" fill="#CFEAFF"/>
<path d="M26.7063 104.296H22.6462C21.0627 104.296 19.7791 105.58 19.7791 107.163V107.221C19.7791 108.804 21.0627 110.088 22.6462 110.088H26.7063C28.2898 110.088 29.5734 108.804 29.5734 107.221V107.163C29.5734 105.58 28.2898 104.296 26.7063 104.296Z" fill="#CFEAFF"/>
<path d="M34.9146 23.1697H32.2897C30.7063 23.1697 29.4226 24.4533 29.4226 26.0368V26.0942C29.4226 27.6777 30.7063 28.9614 32.2897 28.9614H34.9146C36.4981 28.9614 37.7817 27.6777 37.7817 26.0942V26.0368C37.7817 24.4533 36.4981 23.1697 34.9146 23.1697Z" fill="#CFEAFF"/>
<path d="M127.262 40.971V120.774C127.262 121.399 127.115 121.991 126.856 122.514C126.211 123.808 124.877 124.701 123.336 124.701H83.8552C81.6921 124.701 79.9291 122.941 79.9291 120.775V40.971C79.9291 38.8046 81.6921 37.0449 83.8552 37.0449H123.336C125.502 37.0449 127.262 38.8046 127.262 40.971Z" fill="#083A5A"/>
<path d="M83.8555 39.0442H123.336C124.401 39.0442 125.266 39.9083 125.266 40.974V120.778C125.266 121.842 124.402 122.707 123.336 122.707H83.8555C82.7909 122.707 81.9257 121.842 81.9257 120.778V40.974C81.9257 39.9094 82.7897 39.0442 83.8555 39.0442Z" fill="url(#paint0_linear_62_710)"/>
<g style="mix-blend-mode:screen" opacity="0.15">
<path d="M127.263 40.9699V120.772C127.263 121.398 127.117 121.99 126.858 122.513C126.212 123.807 124.878 124.7 123.337 124.7H111.019C111.026 124.623 111.03 124.543 111.03 124.463V124.397C111.03 123.778 110.853 123.196 110.551 122.703C109.985 121.778 108.967 121.162 107.802 121.162H106.274C104.494 121.162 103.047 119.718 103.047 117.935V117.871C103.047 116.088 104.494 114.637 106.274 114.637H107.802C109.585 114.637 111.03 113.193 111.03 111.41V111.346C111.03 109.556 109.585 108.112 107.802 108.112H102.052C100.269 108.112 98.8176 106.668 98.8176 104.884V104.821C98.8176 103.031 100.269 101.587 102.052 101.587H103.037C104.82 101.587 106.264 100.143 106.264 98.356V98.2963C106.264 96.5163 104.837 95.0788 103.064 95.0619H98.1856C96.4022 95.0619 94.958 93.6177 94.958 91.8343V91.7678C94.958 89.9879 96.4022 88.5368 98.1856 88.5368H107.829C109.602 88.52 111.03 87.0791 111.03 85.3092V85.2428C111.03 83.4628 109.585 82.0118 107.802 82.0118H101.969C100.182 82.0118 98.7376 80.5675 98.7376 78.7842V78.7177C98.7376 76.931 100.182 75.4867 101.969 75.4867H107.802C109.585 75.4867 111.03 74.0425 111.03 72.2591V72.1926C111.03 70.4059 109.585 68.9616 107.802 68.9616H92.9808C91.1907 68.9616 89.7465 67.514 89.7465 65.734V65.6676C89.7465 63.8808 91.1907 62.4366 92.9808 62.4366H100.917C102.701 62.4366 104.148 60.9889 104.148 59.2022V59.1357C104.148 57.3558 102.701 55.9081 100.917 55.9081H95.0075C93.2242 55.9081 91.7732 54.4639 91.7732 52.6771V52.6107C91.7732 50.8273 93.2242 49.3831 95.0075 49.3831H106.727C108.511 49.3831 109.955 47.9388 109.955 46.1521V46.0856C109.955 44.3023 108.511 42.858 106.727 42.858L96.8607 42.8411C95.0774 42.8411 93.6331 41.3968 93.6331 39.6135V39.5504C93.6331 39.3769 93.6466 39.2079 93.6725 39.0412C93.7987 38.2391 94.2178 37.5372 94.8205 37.0449H123.337C125.504 37.0449 127.263 38.8046 127.263 40.971V40.9699Z" fill="white"/>
</g>
<g style="mix-blend-mode:screen" opacity="0.2">
<path d="M127.254 40.971V71.0278C126.898 70.1524 126.163 69.4709 125.258 69.178C124.945 69.0743 124.613 69.0214 124.267 69.0214H117.718C115.935 69.0214 114.49 67.5737 114.49 65.7937V65.7273C114.49 63.9405 115.935 62.4963 117.718 62.4963H121.042C122.826 62.4963 124.27 61.0487 124.27 59.2687V59.2022C124.27 57.4155 122.826 55.9678 121.042 55.9678H114.124C112.344 55.9678 110.893 54.5236 110.893 52.7369V52.6771C110.893 50.8904 112.344 49.4428 114.124 49.4428L123.192 49.4326C123.977 49.4326 124.699 49.1499 125.258 48.6812C125.967 48.0886 126.42 47.1975 126.42 46.2016V46.1352C126.42 45.137 125.967 44.2448 125.258 43.6534C124.699 43.1847 123.977 42.9008 123.192 42.9008H115.509C113.729 42.9008 112.278 41.4566 112.278 39.6732V39.6101C112.278 39.4175 112.295 39.2271 112.327 39.0412C112.47 38.2323 112.916 37.5271 113.545 37.0449H123.328C125.495 37.0449 127.254 38.8046 127.254 40.971Z" fill="white"/>
<path d="M127.261 73.543V84.0809C126.905 83.2055 126.17 82.5206 125.265 82.2277C124.952 82.124 124.62 82.0711 124.274 82.0711H122.75C120.963 82.0711 119.519 80.6268 119.519 78.8435V78.777C119.519 76.997 120.963 75.546 122.75 75.546H124.274C124.62 75.546 124.953 75.4931 125.265 75.3894C126.17 75.0999 126.905 74.4183 127.261 73.543Z" fill="white"/>
<path d="M127.256 86.5912V110.176C126.897 109.304 126.164 108.622 125.26 108.333C124.953 108.233 124.631 108.18 124.294 108.176C119.948 108.176 116.737 108.169 116.737 108.169C114.954 108.169 113.506 106.725 113.506 104.942V104.879C113.506 103.089 114.954 101.644 116.737 101.644H119.529C121.299 101.627 122.733 100.193 122.733 98.4167V98.3537C122.733 96.5703 121.282 95.126 119.502 95.126H118.514C116.731 95.126 115.286 93.675 115.286 91.8917V91.8252C115.286 90.0452 116.731 88.601 118.514 88.601H124.267C124.613 88.601 124.947 88.548 125.259 88.4444C126.163 88.1515 126.899 87.4665 127.255 86.5912H127.256Z" fill="white"/>
<path d="M127.261 112.696V120.775C127.261 121.4 127.115 121.993 126.856 122.516C126.44 121.964 125.851 121.55 125.175 121.354C124.889 121.267 124.586 121.225 124.274 121.225H114.427C112.644 121.225 111.193 119.78 111.193 117.997V117.934C111.193 116.15 112.644 114.699 114.427 114.699H124.274C124.619 114.699 124.953 114.646 125.265 114.543C126.17 114.253 126.905 113.571 127.261 112.696Z" fill="white"/>
</g>
<path d="M123.334 37.043H83.8536C81.6906 37.043 79.9275 38.8027 79.9275 40.9691V120.772C79.9275 122.938 81.6906 124.698 83.8536 124.698H123.334C124.875 124.698 126.209 123.805 126.855 122.511C127.114 121.988 127.26 121.397 127.26 120.77V40.9691C127.26 38.8027 125.5 37.043 123.334 37.043ZM125.264 120.773C125.264 121.837 124.399 122.703 123.334 122.703H83.8536C82.789 122.703 81.9238 121.837 81.9238 120.773V40.9691C81.9238 39.9044 82.789 39.0392 83.8536 39.0392H123.334C124.399 39.0392 125.264 39.9044 125.264 40.9691V120.772V120.773Z" fill="#083A5A"/>
<path d="M84.2697 85.2356L90.9626 91.9285C91.6453 92.6112 92.8135 92.1279 92.8135 91.1613V85.2356H84.2697Z" fill="#A3C7D4"/>
<path d="M98.4821 23.9312H58.1758C56.0765 23.9312 54.3748 25.6329 54.3748 27.7322V82.9362C54.3748 85.0354 56.0765 86.7372 58.1758 86.7372H98.4821C100.581 86.7372 102.283 85.0354 102.283 82.9362V27.7322C102.283 25.6329 100.581 23.9312 98.4821 23.9312Z" fill="#94A3B8"/>
<path d="M93.2709 63.4908H63.3786C61.4792 63.4908 59.9403 61.9519 59.9403 60.0525C59.9403 58.1531 61.4792 56.6143 63.3786 56.6143H93.2709C95.1703 56.6143 96.7092 58.1531 96.7092 60.0525C96.7092 61.9519 95.1703 63.4908 93.2709 63.4908Z" fill="white"/>
<path d="M89.2351 41.5145C89.2351 44.5359 88.0004 47.2679 86.0075 49.2371C85.1919 50.0392 84.2478 50.7174 83.2091 51.23C82.9568 51.3562 82.6965 51.4733 82.4307 51.5792C81.3458 52.0152 80.1742 52.2811 78.9496 52.3442C78.8966 52.3475 78.8459 52.3475 78.793 52.3509C78.6601 52.3543 78.5237 52.3577 78.3908 52.3577C78.2579 52.3577 78.1216 52.3543 77.9886 52.3509C77.9357 52.3475 77.885 52.3475 77.832 52.3442C76.6074 52.2811 75.4358 52.0152 74.3521 51.5792C74.0862 51.4733 73.826 51.3562 73.5736 51.23C72.5349 50.7174 71.5908 50.0392 70.7752 49.2371C68.7823 47.2667 67.5476 44.5348 67.5476 41.5145C67.5476 35.5245 72.402 30.6702 78.3919 30.6702C84.3819 30.6702 89.2363 35.5245 89.2363 41.5145H89.2351Z" fill="#CFEAFF"/>
<path d="M93.2709 72.8146H63.3786C61.4792 72.8146 59.9403 71.2757 59.9403 69.3763C59.9403 67.4769 61.4792 65.938 63.3786 65.938H93.2709C95.1703 65.938 96.7092 67.4769 96.7092 69.3763C96.7092 71.2757 95.1703 72.8146 93.2709 72.8146Z" fill="white"/>
<path d="M65.9717 61.859C65.8816 61.859 65.7971 61.8229 65.734 61.7587C65.6709 61.6934 65.6382 61.6077 65.6405 61.5176L65.6709 60.5995L64.8688 61.076C64.8181 61.1064 64.7595 61.1233 64.6998 61.1233C64.5826 61.1233 64.4734 61.0602 64.4148 60.96C64.3652 60.8766 64.3539 60.7854 64.3776 60.6986C64.4013 60.6119 64.4576 60.5398 64.5353 60.497L65.351 60.0441L64.5387 59.6126C64.4587 59.5698 64.4013 59.4988 64.3765 59.4132C64.3517 59.3265 64.3618 59.2352 64.4069 59.1575C64.4722 59.0437 64.5826 58.9795 64.7021 58.9795C64.764 58.9795 64.8237 58.9975 64.8767 59.0302L65.6551 59.5191L65.6348 58.5886C65.6326 58.4996 65.6664 58.4139 65.7295 58.3508C65.7926 58.2866 65.8759 58.2517 65.9661 58.2517C66.0708 58.2517 66.1553 58.2866 66.2184 58.3508C66.2815 58.4151 66.3142 58.4996 66.313 58.5897L66.2928 59.5101L67.0757 59.0392C67.1275 59.0076 67.1861 58.9919 67.2458 58.9919C67.3641 58.9919 67.4734 59.0549 67.532 59.1563C67.5782 59.2352 67.5894 59.3264 67.5635 59.4143C67.5387 59.5022 67.4802 59.5732 67.399 59.616L66.5789 60.0463L67.4126 60.5037C67.4914 60.5465 67.5478 60.6186 67.5725 60.7042C67.5962 60.7899 67.5861 60.8811 67.541 60.9588C67.4723 61.0783 67.3619 61.1413 67.2436 61.1413C67.1839 61.1413 67.1242 61.1244 67.0723 61.0929L66.2759 60.6085L66.3052 61.5199C66.3085 61.61 66.2747 61.6956 66.2128 61.761C66.1497 61.8263 66.0652 61.8612 65.9751 61.8612H65.9728L65.9717 61.859Z" fill="#083A5A"/>
<path d="M72.1468 61.859C72.0567 61.859 71.9722 61.8229 71.9091 61.7587C71.846 61.6934 71.8134 61.6077 71.8156 61.5176L71.846 60.5995L71.0439 61.076C70.9932 61.1064 70.9346 61.1233 70.8761 61.1233C70.7567 61.1233 70.6508 61.0625 70.5899 60.96C70.5403 60.8766 70.528 60.7865 70.5527 60.6997C70.5764 60.613 70.6327 60.5409 70.7116 60.4981L71.5272 60.0441L70.715 59.6137C70.635 59.5709 70.5775 59.4999 70.5527 59.4132C70.528 59.3265 70.5381 59.2352 70.5832 59.1575C70.6485 59.0437 70.7589 58.9795 70.8783 58.9795C70.9403 58.9795 71.0011 58.9975 71.0541 59.0302L71.8325 59.5191L71.8122 58.5886C71.81 58.4996 71.8438 58.4139 71.9069 58.3508C71.97 58.2866 72.0533 58.2517 72.1435 58.2517C72.2482 58.2517 72.3327 58.2866 72.3958 58.3508C72.4589 58.4151 72.4916 58.4996 72.4904 58.5897L72.4702 59.5101L73.2531 59.0392C73.3049 59.0076 73.3635 58.9919 73.4232 58.9919C73.5415 58.9919 73.6508 59.0549 73.7094 59.1563C73.7556 59.2352 73.7668 59.3264 73.7409 59.4143C73.7161 59.5022 73.6576 59.5732 73.5764 59.616L72.7563 60.0463L73.59 60.5037C73.6688 60.5465 73.7252 60.6186 73.7488 60.7042C73.7725 60.791 73.7623 60.8811 73.7173 60.9588C73.6485 61.0783 73.5381 61.1413 73.4198 61.1413C73.3601 61.1413 73.3004 61.1244 73.2486 61.0929L72.4521 60.6096L72.4814 61.5199C72.4848 61.61 72.451 61.6956 72.389 61.761C72.326 61.8263 72.2415 61.8612 72.1513 61.8612H72.1491L72.1468 61.859Z" fill="#083A5A"/>
<path d="M78.3356 61.8601C78.2455 61.8601 78.161 61.824 78.0979 61.7598C78.0348 61.6945 78.0021 61.6089 78.0044 61.5187L78.0348 60.6006L77.2327 61.0783C77.1809 61.1087 77.1234 61.1256 77.0637 61.1256C76.9454 61.1256 76.8384 61.0647 76.7775 60.9622C76.728 60.8789 76.7156 60.7876 76.7404 60.7009C76.764 60.6141 76.8204 60.5431 76.8992 60.4992L77.7148 60.0452L76.9026 59.6149C76.8226 59.572 76.7651 59.5011 76.7404 59.4143C76.7156 59.3276 76.7257 59.2363 76.7708 59.1586C76.8361 59.0448 76.9465 58.9806 77.0659 58.9806C77.1279 58.9806 77.1887 58.9986 77.2417 59.0313L78.019 59.5202L77.9987 58.5897C77.9965 58.4996 78.0303 58.4151 78.0922 58.3508C78.1553 58.2866 78.2387 58.2517 78.3288 58.2517C78.4336 58.2517 78.5181 58.2866 78.5812 58.3508C78.6443 58.4151 78.6769 58.4996 78.6758 58.5897L78.6555 59.5101L79.4385 59.0392C79.4903 59.0076 79.5489 58.9919 79.6086 58.9919C79.7269 58.9919 79.8362 59.0549 79.8947 59.1563C79.9409 59.2352 79.9522 59.3265 79.9263 59.4143C79.9015 59.5022 79.8429 59.5732 79.7618 59.616L78.9417 60.0463L79.7753 60.5037C79.8542 60.5465 79.9105 60.6186 79.9342 60.7042C79.9578 60.791 79.9477 60.8811 79.9026 60.9588C79.8339 61.0783 79.7235 61.1413 79.6052 61.1413C79.5455 61.1413 79.4858 61.1244 79.434 61.0929L78.6375 60.6085L78.6679 61.5199C78.6713 61.61 78.6375 61.6956 78.5744 61.761C78.5113 61.8263 78.4268 61.8612 78.3367 61.8612H78.3333L78.3356 61.8601Z" fill="#083A5A"/>
<path d="M84.5051 61.8601C84.415 61.8601 84.3305 61.824 84.2674 61.7598C84.2043 61.6945 84.1716 61.6089 84.1739 61.5187L84.2043 60.6006L83.4033 61.0771C83.3515 61.1075 83.2941 61.1245 83.2343 61.1245C83.1161 61.1245 83.009 61.0636 82.9482 60.9611C82.8986 60.8777 82.8874 60.7876 82.911 60.7009C82.9347 60.6141 82.991 60.542 83.0699 60.4992L83.8855 60.0452L83.0732 59.6149C82.9933 59.572 82.9358 59.5011 82.911 59.4143C82.8862 59.3276 82.8964 59.2363 82.9414 59.1586C83.0068 59.0448 83.1172 58.9806 83.2366 58.9806C83.2986 58.9806 83.3594 58.9986 83.4123 59.0313L84.1897 59.5202L84.1694 58.5897C84.1671 58.4996 84.2009 58.4151 84.264 58.3508C84.3271 58.2866 84.4105 58.2517 84.5006 58.2517C84.6054 58.2517 84.6899 58.2866 84.753 58.3508C84.816 58.4151 84.8487 58.4996 84.8476 58.5897L84.8273 59.5101L85.6103 59.0392C85.6621 59.0076 85.7207 58.9919 85.7804 58.9919C85.8975 58.9919 86.008 59.0549 86.0665 59.1563C86.1127 59.2352 86.124 59.3265 86.0981 59.4143C86.0733 59.5022 86.0147 59.5732 85.9336 59.616L85.1135 60.0463L85.9471 60.5037C86.026 60.5465 86.0823 60.6186 86.106 60.7042C86.1296 60.791 86.1195 60.8811 86.0744 60.9588C86.0057 61.0783 85.8953 61.1413 85.777 61.1413C85.7173 61.1413 85.6576 61.1244 85.6058 61.0929L84.8093 60.6085L84.8397 61.5199C84.8431 61.61 84.8093 61.6956 84.7462 61.761C84.6831 61.8263 84.5986 61.8612 84.5085 61.8612H84.5062L84.5051 61.8601Z" fill="#083A5A"/>
<path d="M90.6815 61.8601C90.5914 61.8601 90.5069 61.824 90.4438 61.7598C90.3807 61.6945 90.348 61.6089 90.3503 61.5187L90.3807 60.6006L89.5797 61.0771C89.5279 61.1075 89.4704 61.1245 89.4107 61.1245C89.2924 61.1245 89.1854 61.0636 89.1246 60.9611C89.075 60.8777 89.0638 60.7876 89.0874 60.7009C89.1111 60.6141 89.1674 60.542 89.2463 60.4992L90.0619 60.0452L89.2496 59.6149C89.1696 59.572 89.1122 59.5011 89.0874 59.4143C89.0626 59.3276 89.0728 59.2363 89.1178 59.1586C89.182 59.0437 89.2924 58.9806 89.4119 58.9806C89.4738 58.9806 89.5347 58.9986 89.5876 59.0313L90.3649 59.5202L90.3447 58.5897C90.3424 58.4996 90.3762 58.4151 90.4393 58.3508C90.5024 58.2866 90.5857 58.2517 90.6759 58.2517C90.7806 58.2517 90.8651 58.2866 90.9282 58.3508C90.9913 58.4151 91.024 58.4996 91.0229 58.5897L91.0026 59.5101L91.7855 59.0392C91.8374 59.0076 91.8959 58.9919 91.9556 58.9919C92.0728 58.9919 92.1832 59.0549 92.2418 59.1563C92.288 59.2352 92.2992 59.3265 92.2733 59.4143C92.2486 59.5022 92.19 59.5732 92.1089 59.616L91.2887 60.0463L92.1224 60.5037C92.2012 60.5465 92.2576 60.6186 92.2812 60.7042C92.3049 60.791 92.2947 60.8811 92.2497 60.9588C92.181 61.0783 92.0706 61.1413 91.9523 61.1413C91.8926 61.1413 91.8328 61.1244 91.781 61.0929L90.9845 60.6085L91.015 61.5199C91.0183 61.61 90.9845 61.6956 90.9215 61.761C90.8584 61.8263 90.7739 61.8612 90.6838 61.8612H90.6815V61.8601Z" fill="#083A5A"/>
<path d="M65.9717 71.1749C65.8816 71.1749 65.7971 71.1388 65.734 71.0746C65.6709 71.0093 65.6382 70.9236 65.6405 70.8335L65.6709 69.9154L64.8688 70.3919C64.8181 70.4223 64.7595 70.4381 64.7009 70.4381C64.5838 70.4381 64.4745 70.3761 64.4148 70.2747C64.3652 70.1914 64.3539 70.1001 64.3765 70.0134C64.4001 69.9266 64.4565 69.8545 64.5353 69.8106L65.351 69.3577L64.5387 68.9262C64.4587 68.8845 64.4013 68.8136 64.3765 68.7268C64.3517 68.6401 64.3618 68.55 64.4069 68.4711C64.4722 68.3573 64.5815 68.2931 64.7009 68.2931C64.7629 68.2931 64.8237 68.3111 64.8755 68.3438L65.654 68.8327L65.6337 67.9022C65.6315 67.8121 65.6653 67.7276 65.7284 67.6633C65.7914 67.5991 65.8748 67.5642 65.9649 67.5642C66.0697 67.5642 66.1542 67.5991 66.2173 67.6633C66.2804 67.7276 66.313 67.8121 66.3119 67.9022L66.2916 68.8237L67.0746 68.3517C67.1264 68.3201 67.185 68.3044 67.2447 68.3044C67.3619 68.3044 67.4723 68.3675 67.5309 68.4688C67.577 68.5477 67.5883 68.639 67.5624 68.7268C67.5376 68.8147 67.479 68.8857 67.3979 68.9285L66.5778 69.3588L67.4114 69.8162C67.4903 69.859 67.5466 69.9311 67.5714 70.0167C67.5951 70.1024 67.5849 70.1936 67.5399 70.2713C67.4712 70.3908 67.3607 70.4539 67.2425 70.4539C67.1827 70.4539 67.123 70.437 67.0712 70.4054L66.2747 69.921L66.304 70.8312C66.3074 70.9214 66.2736 71.0081 66.2116 71.0723C66.1486 71.1377 66.0641 71.1726 65.9739 71.1726H65.9717V71.1749Z" fill="#083A5A"/>
<path d="M72.1468 71.1764C72.0567 71.1764 71.9722 71.1404 71.9091 71.0761C71.846 71.0108 71.8134 70.9252 71.8156 70.8351L71.846 69.9169L71.0439 70.3935C70.9932 70.4239 70.9346 70.4396 70.8761 70.4396C70.7589 70.4396 70.6496 70.3766 70.5899 70.2763C70.5403 70.1929 70.528 70.1028 70.5527 70.016C70.5764 69.9293 70.6327 69.8572 70.7116 69.8133L71.5272 69.3604L70.715 68.9289C70.635 68.8872 70.5775 68.8151 70.5527 68.7295C70.528 68.6428 70.5381 68.5515 70.5832 68.4738C70.6485 68.36 70.7578 68.2958 70.8772 68.2958C70.9392 68.2958 71 68.3138 71.0529 68.3465L71.8314 68.8354L71.8111 67.9049C71.8089 67.8147 71.8427 67.7302 71.9058 67.666C71.9688 67.6018 72.0522 67.5669 72.1423 67.5669C72.2471 67.5669 72.3316 67.6018 72.3947 67.666C72.4578 67.7302 72.4904 67.8147 72.4893 67.9049L72.469 68.8264L73.252 68.3544C73.3038 68.3228 73.3624 68.307 73.4221 68.307C73.5393 68.307 73.6497 68.3701 73.7083 68.4715C73.7544 68.5504 73.7657 68.6416 73.7398 68.7295C73.715 68.8174 73.6564 68.8884 73.5753 68.9312L72.7552 69.3615L73.5888 69.8189C73.6677 69.8617 73.724 69.9338 73.7477 70.0194C73.7713 70.1062 73.7612 70.1963 73.7161 70.274C73.6474 70.3935 73.537 70.4565 73.4187 70.4565C73.359 70.4565 73.2993 70.4396 73.2475 70.4081L72.451 69.9237L72.4803 70.8339C72.4837 70.9241 72.4499 71.0108 72.3879 71.075C72.3248 71.1404 72.2403 71.1753 72.1502 71.1753H72.148L72.1468 71.1764Z" fill="#083A5A"/>
<path d="M78.3345 71.18C78.2443 71.18 78.1598 71.144 78.0968 71.0798C78.0337 71.0144 78.001 70.9288 78.0032 70.8387L78.0337 69.9205L77.2315 70.3982C77.1808 70.4286 77.1223 70.4444 77.0637 70.4444C76.9443 70.4444 76.8384 70.3835 76.7775 70.281C76.728 70.1976 76.7156 70.1075 76.7404 70.0208C76.764 69.934 76.8204 69.8619 76.8992 69.8191L77.7148 69.3662L76.9026 68.9348C76.8226 68.8931 76.7651 68.821 76.7404 68.7354C76.7156 68.6486 76.7257 68.5574 76.7708 68.4796C76.8361 68.3659 76.9465 68.3016 77.0648 68.3016C77.1268 68.3016 77.1876 68.3197 77.2406 68.3523L78.0179 68.8413L77.9976 67.9107C77.9954 67.8206 78.0292 67.7361 78.0911 67.6719C78.1542 67.6077 78.2376 67.5728 78.3277 67.5728C78.4325 67.5728 78.517 67.6077 78.58 67.6719C78.6431 67.7361 78.6758 67.8206 78.6747 67.9107L78.6544 68.8323L79.4374 68.3602C79.4892 68.3287 79.5478 68.3129 79.6075 68.3129C79.7246 68.3129 79.835 68.376 79.8936 68.4774C79.9398 68.5562 79.9511 68.6475 79.9252 68.7354C79.9004 68.8232 79.8418 68.8942 79.7607 68.937L78.9405 69.3674L79.7742 69.8248C79.8531 69.8676 79.9094 69.9397 79.9331 70.0253C79.9567 70.112 79.9466 70.2022 79.9015 70.2799C79.8328 70.3993 79.7224 70.4624 79.6041 70.4624C79.5444 70.4624 79.4847 70.4455 79.4329 70.4139L78.6364 69.9295L78.6668 70.8409C78.6702 70.931 78.6364 71.0167 78.5733 71.082C78.5102 71.1473 78.4257 71.1823 78.3356 71.1823H78.3322L78.3345 71.18Z" fill="#083A5A"/>
<path d="M84.5097 71.1764C84.4196 71.1764 84.3351 71.1404 84.272 71.0761C84.2089 71.0108 84.1763 70.9252 84.1785 70.8351L84.2089 69.9169L83.4079 70.3935C83.3572 70.4239 83.2987 70.4396 83.2401 70.4396C83.1207 70.4396 83.0148 70.3788 82.9539 70.2763C82.9044 70.1929 82.8931 70.1028 82.9168 70.016C82.9404 69.9293 82.9967 69.8572 83.0756 69.8133L83.8912 69.3604L83.079 68.9289C82.999 68.8872 82.9415 68.8151 82.9168 68.7295C82.892 68.6428 82.9021 68.5515 82.9472 68.4738C83.0125 68.36 83.1229 68.2958 83.2412 68.2958C83.3032 68.2958 83.364 68.3138 83.417 68.3465L84.1943 68.8354L84.174 67.9049C84.1717 67.8147 84.2055 67.7302 84.2686 67.666C84.3317 67.6018 84.4151 67.5669 84.5052 67.5669C84.61 67.5669 84.6945 67.6018 84.7576 67.666C84.8206 67.7302 84.8533 67.8147 84.8522 67.9049L84.8319 68.8264L85.6149 68.3544C85.6667 68.3228 85.7253 68.307 85.785 68.307C85.9022 68.307 86.0126 68.3701 86.0711 68.4715C86.1173 68.5504 86.1286 68.6416 86.1027 68.7295C86.0779 68.8174 86.0193 68.8884 85.9382 68.9312L85.1181 69.3615L85.9517 69.8189C86.0306 69.8617 86.0869 69.9338 86.1106 70.0194C86.1342 70.1062 86.1241 70.1963 86.079 70.274C86.0103 70.3935 85.8999 70.4565 85.7816 70.4565C85.7219 70.4565 85.6622 70.4396 85.6104 70.4081L84.8139 69.9237L84.8443 70.8351C84.8477 70.9252 84.8139 71.0108 84.7508 71.0761C84.6877 71.1415 84.6032 71.1764 84.5131 71.1764H84.5108H84.5097Z" fill="#083A5A"/>
<path d="M90.6804 71.1749C90.5903 71.1749 90.5058 71.1388 90.4427 71.0746C90.3796 71.0093 90.3469 70.9236 90.3492 70.8335L90.3796 69.9154L89.5786 70.3919C89.5279 70.4223 89.4693 70.4381 89.4107 70.4381C89.2913 70.4381 89.1854 70.3772 89.1246 70.2747C89.075 70.1914 89.0638 70.1012 89.0874 70.0145C89.1111 69.9277 89.1674 69.8556 89.2463 69.8117L90.0619 69.3588L89.2496 68.9274C89.1696 68.8857 89.1122 68.8136 89.0874 68.728C89.0626 68.6412 89.0728 68.5511 89.1178 68.4722C89.182 68.3573 89.2924 68.2931 89.4119 68.2931C89.4738 68.2931 89.5347 68.3111 89.5876 68.3438L90.3649 68.8327L90.3447 67.9022C90.3424 67.8121 90.3762 67.7276 90.4393 67.6633C90.5024 67.5991 90.5857 67.5642 90.6759 67.5642C90.7806 67.5642 90.8651 67.5991 90.9282 67.6633C90.9913 67.7276 91.024 67.8121 91.0228 67.9022L91.0026 68.8237L91.7855 68.3517C91.8374 68.3201 91.8959 68.3044 91.9556 68.3044C92.0728 68.3044 92.1832 68.3675 92.2418 68.4688C92.288 68.5477 92.2993 68.639 92.2733 68.7268C92.2486 68.8147 92.19 68.8857 92.1089 68.9285L91.2887 69.3588L92.1224 69.8162C92.2012 69.859 92.2576 69.9311 92.2812 70.0167C92.3049 70.1035 92.2947 70.1936 92.2497 70.2713C92.181 70.3908 92.0706 70.4539 91.9523 70.4539C91.8926 70.4539 91.8329 70.437 91.781 70.4054L90.9845 69.921L91.015 70.8324C91.0183 70.9225 90.9845 71.0081 90.9215 71.0735C90.8584 71.1388 90.7739 71.1737 90.6838 71.1737H90.6815L90.6804 71.1749Z" fill="#083A5A"/>
<path d="M86.0046 49.2346C85.189 50.0367 84.2449 50.7149 83.2063 51.2275L83.0429 50.5189C83.0035 50.3296 82.7331 50.3262 82.6869 50.5155L82.4278 51.5767C81.3429 52.0127 80.1713 52.2785 78.9467 52.3416C78.8938 52.345 78.8431 52.345 78.7901 52.3484C78.6572 52.3518 78.5209 52.3552 78.3879 52.3552C78.255 52.3552 78.1187 52.3518 77.9857 52.3484C77.9328 52.345 77.8821 52.345 77.8291 52.3416C76.6046 52.2785 75.4329 52.0127 74.3492 51.5767L74.0901 50.5155C74.0439 50.3262 73.7735 50.3296 73.7307 50.5189L73.5707 51.2275C72.532 50.7149 71.588 50.0367 70.7723 49.2346C70.8388 46.5094 72.5489 43.8011 74.7086 43.7178C75.6673 44.6292 76.9617 45.1913 78.3891 45.1913C79.8164 45.1913 81.1108 44.6292 82.0695 43.7178C84.2292 43.8011 85.9393 46.5094 86.0058 49.2346H86.0046Z" fill="#F9FBFC"/>
<path d="M78.3914 44.0848C80.4409 44.0848 82.1024 42.1908 82.1024 39.8545C82.1024 37.5182 80.4409 35.6243 78.3914 35.6243C76.342 35.6243 74.6805 37.5182 74.6805 39.8545C74.6805 42.1908 76.342 44.0848 78.3914 44.0848Z" fill="#F9FBFC"/>
<path d="M119.325 33.8786V44.8107C119.325 51.3043 112.839 58.1977 107.519 59.4257C106.276 59.1407 104.973 58.5447 103.704 57.7201C101.538 56.3175 99.4752 54.2435 97.9859 51.8754C97.6321 51.3167 97.3167 50.7432 97.0362 50.1574C96.7433 49.5536 96.4932 48.934 96.2949 48.311C95.9186 47.1563 95.7102 45.9779 95.7102 44.8107V33.8786C95.7102 33.3615 96.0899 32.9244 96.5991 32.8489C100.463 32.2788 104.761 31.9904 109.214 32.0884C109.956 32.1042 110.704 32.1301 111.456 32.1684C112.201 32.2022 112.946 32.2518 113.695 32.3171C115.272 32.4388 116.86 32.6168 118.436 32.8489C118.949 32.9244 119.325 33.366 119.325 33.8786Z" fill="#FFC319"/>
<g style="mix-blend-mode:multiply" opacity="0.35">
<path d="M119.328 42.9573V44.8116C119.328 51.3051 112.841 58.1986 107.522 59.4265C107.495 59.4186 107.472 59.4153 107.446 59.4074C112.359 56.823 118.523 49.8124 119.328 42.9573Z" fill="#F77B01"/>
</g>
<path style="mix-blend-mode:screen" opacity="0.6" d="M112.984 32.259C107.55 32.259 102.302 32.7525 97.5871 33.4442C96.9596 33.5354 96.4966 34.0717 96.4966 34.7059L95.8353 46.3986C95.7519 45.8668 95.7102 45.3385 95.7102 44.8101V33.8779C95.7102 33.3608 96.0899 32.9237 96.5991 32.8482C101.547 32.1182 107.208 31.849 112.984 32.259Z" fill="url(#paint1_radial_62_710)"/>
<g style="mix-blend-mode:screen" opacity="0.5">
<path d="M109.215 32.088C104.028 36.6901 99.6392 42.1764 96.2955 48.3095C96.4927 48.9325 96.7439 49.5521 97.0368 50.1559C100.613 43.2399 105.537 37.126 111.457 32.1669C110.704 32.1286 109.956 32.1027 109.215 32.0869V32.088Z" fill="url(#paint2_linear_62_710)"/>
<path d="M118.443 32.8533C116.866 32.6212 115.277 32.4432 113.701 32.3215C107.075 37.5195 101.671 44.2113 97.9923 51.8798C99.4816 54.2468 101.545 56.3219 103.711 57.7245C106.998 49.665 112.446 42.7107 119.332 37.577V33.883C119.332 33.3704 118.955 32.9288 118.443 32.8533Z" fill="url(#paint3_linear_62_710)"/>
</g>
<path d="M92.6058 99.6549C92.3478 99.335 92.0583 99.0353 91.7485 98.7525C91.5592 98.5768 91.3564 98.4112 91.1457 98.2535C91.0353 98.1712 90.9249 98.0879 90.8112 98.0124C90.3571 97.7026 89.8885 97.4401 89.4097 97.2272C87.7841 96.5039 86.0593 96.3349 84.4303 96.6278C81.1587 97.2136 78.2894 99.6718 77.4805 103.243L55.722 103.429C54.7194 104.445 54.1583 105.013 53.1534 106.029L53.167 108.199V108.206C53.3044 108.343 53.4351 108.47 53.559 108.591C53.6863 108.718 53.8136 108.842 53.9375 108.966C54.013 109.038 54.0896 109.114 54.1685 109.194C54.2203 109.239 54.2687 109.287 54.3194 109.341C54.3679 109.393 54.4197 109.441 54.467 109.49C54.5155 109.538 54.5639 109.587 54.6146 109.637C54.9593 109.982 55.321 110.337 55.7648 110.774L57.5527 110.764L57.8659 109.644L59.5951 109.624L60.0086 109.621L60.1641 110.144L60.3364 110.734L63.8626 110.702L64.1104 109.587L65.9456 109.566L66.3928 109.563L66.5168 110.09L66.6542 110.679L68.9547 110.666L69.1991 109.546L71.9953 109.533L72.4425 109.529L72.5664 110.05L72.7039 110.642L75.2657 110.612L75.5789 109.492L78.1925 109.468L78.4054 109.465C78.7118 109.996 79.0735 110.501 79.5004 110.967C79.9443 111.462 80.458 111.914 81.0359 112.31C81.704 112.768 82.4171 113.115 83.1471 113.363C85.647 114.21 88.3958 113.859 90.5926 112.454C91.5434 111.844 92.3906 111.039 93.0688 110.046C95.2938 106.792 94.9941 102.552 92.6001 99.656L92.6058 99.6549ZM88.1119 102.679C88.5558 103.072 88.8735 103.561 89.0526 104.094C89.3759 105.048 89.2655 106.133 88.656 107.025C87.9057 108.12 86.6102 108.622 85.3777 108.42C84.9192 108.344 84.4686 108.168 84.0619 107.889C83.7724 107.693 83.5245 107.455 83.3217 107.193C83.2598 107.114 83.2012 107.031 83.1494 106.948C82.8294 106.449 82.6503 105.877 82.6255 105.292C82.5951 104.607 82.781 103.904 83.1978 103.295C83.5594 102.768 84.045 102.379 84.5891 102.138H84.5925C84.7367 102.073 84.8888 102.021 85.0398 101.979C85.594 101.82 86.1866 101.81 86.7544 101.962C87.116 102.051 87.4675 102.21 87.7908 102.431C87.8427 102.466 87.8945 102.503 87.9463 102.541C88.0049 102.586 88.0601 102.63 88.1119 102.679Z" fill="#F77B01"/>
<path d="M92.4806 99.6852C92.2564 99.3585 92.0085 99.0442 91.7404 98.749C91.5816 98.5767 91.4171 98.4077 91.2447 98.25C90.9281 97.9503 90.5868 97.6743 90.2184 97.4231C89.9841 97.2642 89.7498 97.1166 89.5087 96.986C87.8492 96.0599 86.0411 95.7569 84.322 95.9664C80.851 96.3866 77.7372 98.9045 76.8866 102.655H55.1281C54.1255 103.671 53.5645 104.425 52.5596 105.441L52.5731 107.617C52.7871 107.827 52.9798 108.017 53.1589 108.196C53.2963 108.33 53.4236 108.461 53.551 108.588C53.6783 108.716 53.8056 108.84 53.9295 108.964C54.005 109.036 54.0816 109.111 54.1604 109.191C54.2122 109.236 54.2607 109.285 54.3114 109.339C54.3598 109.384 54.4083 109.432 54.459 109.487C54.5074 109.536 54.5558 109.584 54.6065 109.635C54.7823 109.801 54.9682 109.987 55.1709 110.186L56.9588 110.176L57.272 109.056L59.4136 109.032L59.586 109.622L59.7414 110.145L60.1549 110.142L63.2687 110.115L63.5165 109L65.8001 108.976L65.9375 109.565L66.0615 110.092L66.5087 110.089L68.3619 110.079L68.6064 108.959L71.8509 108.942L71.9883 109.531L72.1122 110.055L72.5595 110.048L74.6741 110.025L74.9872 108.905L77.8149 108.878C77.9287 109.077 78.0526 109.275 78.1867 109.467C78.5551 110.008 78.9922 110.514 79.4958 110.966C79.792 111.242 80.1086 111.493 80.4466 111.724C81.2453 112.268 82.106 112.664 82.9881 112.909C86.2078 113.818 89.7554 112.788 91.9702 110.133C92.1493 109.919 92.3217 109.696 92.4794 109.462C94.5489 106.431 94.4318 102.55 92.4794 99.6908L92.4806 99.6852ZM83.0343 106.945C82.5589 106.486 82.2457 105.905 82.1083 105.289C81.9156 104.428 82.0666 103.491 82.604 102.706C83.6134 101.229 85.6175 100.825 87.1125 101.786C87.144 101.803 87.171 101.821 87.1981 101.841C87.4876 102.037 87.7355 102.275 87.9382 102.538C87.9799 102.589 88.0171 102.641 88.0486 102.693C88.3415 103.113 88.5274 103.592 88.5995 104.091C88.7201 104.883 88.5477 105.724 88.0622 106.437C87.4831 107.281 86.5886 107.773 85.6412 107.86C84.901 107.932 84.1293 107.753 83.468 107.302C83.4162 107.267 83.3644 107.23 83.3126 107.192C83.2157 107.113 83.1199 107.033 83.0332 106.947L83.0343 106.945Z" fill="#FFC319"/>
<g style="mix-blend-mode:screen" opacity="0.25">
<path d="M76.7115 105.397H55.7213L56.555 104.622H76.6709C76.6709 104.88 76.6845 105.139 76.7126 105.397H76.7115Z" fill="white"/>
</g>
<g style="mix-blend-mode:screen" opacity="0.25">
<path d="M77.0258 107.034H55.7213L56.555 106.259H76.8365C76.885 106.517 76.9503 106.776 77.0258 107.034Z" fill="white"/>
</g>
<path d="M78.1002 109.34C77.6654 108.671 77.3296 107.964 77.101 107.235C77.217 107.95 77.4277 108.658 77.7307 109.34H78.1002Z" fill="#F77B01"/>
<g style="mix-blend-mode:screen" opacity="0.25">
<path d="M81.8472 106.946C80.7691 106.946 80.7556 105.29 81.8472 105.29H82.6156C82.6392 105.876 82.8183 106.447 83.1394 106.946H81.8484H81.8472Z" fill="white"/>
<path d="M85.0213 101.981C84.8704 102.023 84.7183 102.075 84.5741 102.14C84.6913 102.05 84.8388 101.991 85.0213 101.981Z" fill="white"/>
<path d="M93.0678 110.043C90.8259 113.321 86.7309 114.575 83.1461 113.359C83.074 113.242 83.0121 113.095 82.9907 112.905C82.9839 112.857 82.9805 112.802 82.9805 112.747C82.9805 112.291 83.3455 111.923 83.7973 111.923H86.3039C87.382 111.923 87.4023 110.267 86.3039 110.267H83.3252C82.2505 110.267 82.2404 108.603 83.3252 108.603H84.8303C85.0579 108.603 85.2404 108.531 85.3711 108.417C85.5333 108.273 85.6223 108.069 85.6437 107.86C86.5912 107.774 87.4857 107.281 88.0647 106.437C88.895 105.221 88.8015 103.641 87.9408 102.538C87.889 102.499 87.8371 102.462 87.7853 102.427C87.462 102.206 87.1105 102.049 86.7489 101.959C86.8965 101.932 87.017 101.873 87.1139 101.786C87.6163 101.359 87.4485 100.319 86.5867 100.309H84.1341C83.0526 100.309 83.0526 98.6533 84.1341 98.6533H85.3733C86.4582 98.6465 86.4481 96.9972 85.37 96.9972H85.1187C84.7842 96.9972 84.5543 96.8418 84.4225 96.6255C84.3087 96.4328 84.2749 96.1917 84.3223 95.9675C86.2892 95.7265 88.3723 96.1602 90.2187 97.4242C90.7899 97.8129 91.2968 98.2612 91.7407 98.7502C94.8951 101.605 95.5361 106.43 93.0667 110.043H93.0678Z" fill="white"/>
</g>
<g style="mix-blend-mode:screen" opacity="0.2">
<path d="M89.3601 97.5272C89.3601 97.4135 89.3736 97.3132 89.4018 97.2276C89.4254 97.1341 89.4638 97.0552 89.5088 96.9899C89.7499 97.1205 89.9842 97.2693 90.2186 97.427C90.5869 97.6782 90.9283 97.9542 91.2448 98.2539H90.0811C89.6812 98.2539 89.3612 97.9272 89.3612 97.5272H89.3601Z" fill="white"/>
<path d="M93.0588 110.042C92.3806 111.033 91.5335 111.84 90.5826 112.449C90.3968 112.019 90.6131 111.399 91.2372 111.399H91.4614C92.1981 111.399 92.3671 110.524 91.9638 110.129C91.8433 110.015 91.6777 109.939 91.4647 109.939H90.3731C89.4155 109.939 89.4155 108.479 90.3731 108.479H92.5327C93.4869 108.469 93.4768 107.016 92.526 107.016H91.2169C90.2458 107.016 90.2695 105.553 91.2169 105.553H92.526C93.4903 105.553 93.4768 104.092 92.526 104.092H88.5931C88.521 103.593 88.3351 103.115 88.0422 102.694C88.0591 102.691 88.0772 102.681 88.0974 102.678C88.1729 102.65 88.263 102.632 88.3588 102.632H90.9826C91.9435 102.632 91.9402 101.176 90.9826 101.176H89.6566C88.7024 101.176 88.7092 99.7124 89.6566 99.7124H92.2804C92.3491 99.7124 92.4144 99.7056 92.473 99.6887C92.5147 99.682 92.5519 99.6685 92.5902 99.6538C94.9841 102.55 95.2838 106.789 93.0588 110.044V110.042Z" fill="white"/>
</g>
<defs>
<linearGradient id="paint0_linear_62_710" x1="108.813" y1="111.901" x2="96.1688" y2="36.6998" gradientUnits="userSpaceOnUse">
<stop offset="0.11" stop-color="#0057FF"/>
<stop offset="0.27" stop-color="#005FFF"/>
<stop offset="0.52" stop-color="#0075FF"/>
<stop offset="0.82" stop-color="#009AFF"/>
<stop offset="1" stop-color="#01B3FF"/>
</linearGradient>
<radialGradient id="paint1_radial_62_710" cx="0" cy="0" r="1" gradientUnits="userSpaceOnUse" gradientTransform="translate(96.4312 33.4577) scale(8.40193 8.40193)">
<stop stop-color="white"/>
<stop offset="0.07" stop-color="#F6F6F6"/>
<stop offset="0.19" stop-color="#DFDFDF"/>
<stop offset="0.33" stop-color="#BABABA"/>
<stop offset="0.5" stop-color="#868686"/>
<stop offset="0.68" stop-color="#444444"/>
<stop offset="0.85"/>
</radialGradient>
<linearGradient id="paint2_linear_62_710" x1="109.984" y1="31.0077" x2="99.7248" y2="46.08" gradientUnits="userSpaceOnUse">
<stop offset="0.17" stop-color="white"/>
<stop offset="0.26" stop-color="#FBFBFB"/>
<stop offset="0.35" stop-color="#F0F0F0"/>
<stop offset="0.43" stop-color="#DDDDDD"/>
<stop offset="0.52" stop-color="#C3C3C3"/>
<stop offset="0.6" stop-color="#A1A1A1"/>
<stop offset="0.68" stop-color="#777777"/>
<stop offset="0.76" stop-color="#464646"/>
<stop offset="0.84" stop-color="#0E0E0E"/>
<stop offset="0.85"/>
</linearGradient>
<linearGradient id="paint3_linear_62_710" x1="115.206" y1="34.5623" x2="104.947" y2="49.6357" gradientUnits="userSpaceOnUse">
<stop offset="0.17" stop-color="white"/>
<stop offset="0.26" stop-color="#FBFBFB"/>
<stop offset="0.35" stop-color="#F0F0F0"/>
<stop offset="0.43" stop-color="#DDDDDD"/>
<stop offset="0.52" stop-color="#C3C3C3"/>
<stop offset="0.6" stop-color="#A1A1A1"/>
<stop offset="0.68" stop-color="#777777"/>
<stop offset="0.76" stop-color="#464646"/>
<stop offset="0.84" stop-color="#0E0E0E"/>
<stop offset="0.85"/>
</linearGradient>
</defs>
</svg>
